Coordinates
nRows=14
nColumns=24

# SIMM Motion File Header:
name Coordinates
datacolumns 24
datarows 14
otherdata 1
range 0.34799999999999998000 0.36099999999999999000
endheader
time	pelvis_tx	pelvis_ty	pelvis_tz	pelvis_tilt	pelvis_list	pelvis_rotation	hip_flexion_r	hip_adduction_r	hip_rotation_r	knee_angle_r	ankle_angle_r	subtalar_angle_r	mtp_angle_r	hip_flexion_l	hip_adduction_l	hip_rotation_l	knee_angle_l	ankle_angle_l	subtalar_angle_l	mtp_angle_l	lumbar_extension	lumbar_bending	lumbar_rotation
      0.34799999999999998000	      1.65217756975291600000	      0.85994195040470089000	     -0.22731131120995263000	     -6.30016699275459140000	      1.33912282510644020000	     -0.47904476299697862000	     -7.32597776458965910000	      1.49361818984163410000	      9.19044781624296190000	     -3.35946696856061690000	      8.40153314748812360000	     -0.00000000000002648893	     -0.00000000000011685801	     32.64779201460763100000	     -1.90220204315356690000	      3.32428215370866550000	    -32.36490487110209100000	      4.37706738518652830000	     -0.00000000000000598468	      0.00000000000000589000	     -3.71912100577307970000	     -4.44555465048576970000	      5.60397679265580710000
      0.34899999999999998000	      1.65372037321145740000	      0.85971044722109768000	     -0.22734271663937503000	     -6.30598800331563950000	      1.35992832568168230000	     -0.46717961937426417000	     -7.46086544850429070000	      1.46994642479641620000	      9.11700978050523860000	     -3.31629980223218320000	      8.38059882983989550000	     -0.00000000000002661038	     -0.00000000000011756445	     32.70558432958980400000	     -1.86391951285421140000	      3.30639434535575070000	    -32.01488563982000100000	      4.32130887749131350000	     -0.00000000000000594991	      0.00000000000000575235	     -3.71577894830957240000	     -4.45669497609992420000	      5.59977960621413830000
      0.34999999999999998000	      1.65526577021084640000	      0.85947761624792773000	     -0.22737453511494510000	     -6.31139575292305910000	      1.38047114225795990000	     -0.45560411412000601000	     -7.59577886155657200000	      1.44630886018101190000	      9.04307847325826230000	     -3.27402777227765360000	      8.35913232752189470000	     -0.00000000000002673751	     -0.00000000000011830442	     32.76110033416894400000	     -1.82613590913669290000	      3.28914544920090620000	    -31.66324291426689500000	      4.26290120994664880000	     -0.00000000000000591624	      0.00000000000000564544	     -3.71262983123244310000	     -4.46754552408236890000	      5.59616632581354520000
      0.35099999999999998000	      1.65681380489073350000	      0.85924371018780377000	     -0.22740667020763486000	     -6.31626978416292140000	      1.40078853173236410000	     -0.44436390781167223000	     -7.73079565054179250000	      1.42267117856463380000	      8.96868244672110220000	     -3.23278580755840440000	      8.33862058963324590000	     -0.00000000000002687416	     -0.00000000000011898215	     32.81421122703596200000	     -1.78884218684253930000	      3.27246135996025740000	    -31.31012005783841100000	      4.20157262499877500000	     -0.00000000000000588751	      0.00000000000000556654	     -3.70981572393694230000	     -4.47816660554846460000	      5.59321930959185920000
      0.35199999999999998000	      1.65836447725111900000	      0.85900872904072578000	     -0.22743912191744425000	     -6.32061009703522460000	      1.42088049410489510000	     -0.43345900044926283000	     -7.86591581545995130000	      1.39903337994728180000	      8.89382170089375630000	     -3.19257390807443640000	      8.31906361617394730000	     -0.00000000000002702031	     -0.00000000000011959764	     32.86491700819085100000	     -1.75203834597175030000	      3.25634207763380430000	    -30.95551707053455500000	      4.13732312264769050000	     -0.00000000000000586375	      0.00000000000000551563	     -3.70733662642306960000	     -4.48855822049821280000	      5.59093855754908020000
      0.35299999999999998000	      1.65991514961150430000	      0.85877374789364780000	     -0.22747157362725368000	     -6.32495040990752780000	      1.44097245647742600000	     -0.42255409308685371000	     -8.00103598037811100000	      1.37539558132992970000	      8.81896095506641050000	     -3.15236200859046890000	      8.29950664271465040000	     -0.00000000000002716646	     -0.00000000000012021313	     32.91562278934574700000	     -1.71523450510096160000	      3.24022279530735170000	    -30.60091408323069800000	      4.07307362029660510000	     -0.00000000000000583998	      0.00000000000000546473	     -3.70485752890919700000	     -4.49894983544796020000	      5.58865780550630210000
      0.35399999999999998000	      1.66147160049531470000	      0.85853645655407274000	     -0.22750426074826902000	     -6.32822998504784100000	      1.46063082950322800000	     -0.41272922868595840000	     -8.13586649164741790000	      1.35167472980286130000	      8.74344596063171590000	     -3.11519435364502460000	      8.28250803264152150000	     -0.00000000000002733557	     -0.00000000000012081396	     32.96116981202955300000	     -1.67959496788007010000	      3.22511235765054800000	    -30.24368481202254000000	      4.00315914258729590000	     -0.00000000000000580899	      0.00000000000000542215	     -3.70297205702841570000	     -4.50894757084035640000	      5.58829119912760140000
      0.35499999999999998000	      1.66302805137912490000	      0.85829916521449767000	     -0.22753694786928433000	     -6.33150956018815410000	      1.48028920252902970000	     -0.40290436428506315000	     -8.27069700291672660000	      1.32795387827579290000	      8.66793096619702300000	     -3.07802669869957990000	      8.26550942256839070000	     -0.00000000000002750467	     -0.00000000000012141479	     33.00671683471336600000	     -1.64395543065917840000	      3.21000191999374440000	    -29.88645554081438100000	      3.93324466487798710000	     -0.00000000000000577801	      0.00000000000000537957	     -3.70108658514763440000	     -4.51894530623275340000	      5.58792459274890070000
      0.35599999999999998000	      1.66458733928946660000	      0.85806066830651562000	     -0.22756963455447549000	     -6.33440647918204030000	      1.49974330350626150000	     -0.39370990413330781000	     -8.40503928844188940000	      1.30416451779432000000	      8.59213081196381450000	     -3.04268750247683430000	      8.24805960383447360000	     -0.00000000000002765143	     -0.00000000000012206212	     33.04992841770048500000	     -1.60889421561569450000	      3.19541408302934290000	    -29.52839443006830300000	      3.86138362508947530000	     -0.00000000000000574289	      0.00000000000000533640	     -3.69932862018176060000	     -4.52877737922219930000	      5.58866097896812520000
      0.35699999999999998000	      1.66614946422633990000	      0.85782096583012646000	     -0.22760232080384252000	     -6.33692074202950110000	      1.51899313243492310000	     -0.38514584823069137000	     -8.53889334822290640000	      1.28030664835844240000	      8.51604549793209390000	     -3.00917676497678420000	      8.23015857643977000000	     -0.00000000000002777584	     -0.00000000000012275596	     33.09080456099092500000	     -1.57441132274961730000	      3.18134884675734190000	    -29.16950147978431200000	      3.78757602322176500000	     -0.00000000000000570362	      0.00000000000000529263	     -3.69769816213079360000	     -4.53844378980869670000	      5.59050035778527300000
      0.35799999999999998000	      1.66771158916321300000	      0.85758126335373730000	     -0.22763500705320955000	     -6.33943500487696100000	      1.53824296136358420000	     -0.37658179232807565000	     -8.67274740800392150000	      1.25644877892256490000	      8.43996018390037150000	     -2.97566602747673640000	      8.21225754904506290000	     -0.00000000000002790025	     -0.00000000000012344980	     33.13168070428136500000	     -1.53992842988354070000	      3.16728361048534210000	    -28.81060852950031800000	      3.71376842135405290000	     -0.00000000000000566436	      0.00000000000000524886	     -3.69606770407982670000	     -4.54811020039519320000	      5.59233973660242260000
      0.35899999999999999000	      1.66927881702754650000	      0.85733923832517189000	     -0.22766784466883697000	     -6.34153114559202000000	      1.55707543542365510000	     -0.36904561816705816000	     -8.80526066201406540000	      1.23250653946890210000	      8.36304184499150690000	     -2.94566119941097380000	      8.18952547961777810000	     -0.00000000000002793618	     -0.00000000000012436369	     33.16885135544753600000	     -1.50640111276058390000	      3.15449542132562800000	    -28.45107778132004500000	      3.63794511556387420000	     -0.00000000000000561153	      0.00000000000000520011	     -3.69436625337904530000	     -4.55744168466280010000	      5.59615357017800810000
      0.35999999999999999000	      1.67084604489188000000	      0.85709721329660649000	     -0.22770068228446441000	     -6.34362728630707910000	      1.57590790948372610000	     -0.36150944400604068000	     -8.93777391602420760000	      1.20856430001523930000	      8.28612350608264240000	     -2.91565637134521130000	      8.16679341019049330000	     -0.00000000000002797212	     -0.00000000000012527758	     33.20602200661370100000	     -1.47287379563762700000	      3.14170723216591390000	    -28.09154703313977600000	      3.56212180977369550000	     -0.00000000000000555871	      0.00000000000000515136	     -3.69266480267826400000	     -4.56677316893040790000	      5.59996740375359360000
      0.36099999999999999000	      1.67241765289567270000	      0.85685315989067401000	     -0.22773387002130957000	     -6.34551094989746020000	      1.59435402552644430000	     -0.35468103745757446000	     -9.06893029708327520000	      1.18458604641225350000	      8.20817715384223590000	     -2.88870461640312510000	      8.13804413552445990000	     -0.00000000000002805105	     -0.00000000000012622309	     33.24037064608446500000	     -1.44004373726667260000	      3.13032589003096670000	    -27.73212238789918200000	      3.48555655712958950000	     -0.00000000000000548833	      0.00000000000000507753	     -3.69075082764421230000	     -4.57579788956448570000	      5.60535749785551030000
